<mxfile host="app.diagrams.net" modified="2024-04-22T13:20:53.062Z" agent="Mozilla/5.0 (Windows NT 10.0; Win64; x64) AppleWebKit/537.36 (KHTML, like Gecko) Chrome/123.0.0.0 Safari/537.36" etag="BzLUgIwEdOR4QhZQ_wbG" version="24.2.5" type="github">
  <diagram name="Trang-1" id="avz9ap3GIfIMu1iKqB_t">
    <mxGraphModel dx="1750" dy="928" grid="1" gridSize="10" guides="1" tooltips="1" connect="1" arrows="1" fold="1" page="1" pageScale="1" pageWidth="827" pageHeight="1169" math="0" shadow="0">
      <root>
        <mxCell id="0" />
        <mxCell id="1" parent="0" />
        <mxCell id="_b-5zfrXbttlsBcRX-14-100" style="edgeStyle=orthogonalEdgeStyle;rounded=0;orthogonalLoop=1;jettySize=auto;html=1;exitX=0.5;exitY=1;exitDx=0;exitDy=0;entryX=0.5;entryY=0;entryDx=0;entryDy=0;" edge="1" parent="1" source="_b-5zfrXbttlsBcRX-14-66" target="_b-5zfrXbttlsBcRX-14-76">
          <mxGeometry relative="1" as="geometry" />
        </mxCell>
        <mxCell id="_b-5zfrXbttlsBcRX-14-106" style="edgeStyle=orthogonalEdgeStyle;rounded=0;orthogonalLoop=1;jettySize=auto;html=1;exitX=0.5;exitY=1;exitDx=0;exitDy=0;" edge="1" parent="1" source="_b-5zfrXbttlsBcRX-14-66" target="_b-5zfrXbttlsBcRX-14-104">
          <mxGeometry relative="1" as="geometry" />
        </mxCell>
        <mxCell id="_b-5zfrXbttlsBcRX-14-113" style="edgeStyle=orthogonalEdgeStyle;rounded=0;orthogonalLoop=1;jettySize=auto;html=1;exitX=1;exitY=0.5;exitDx=0;exitDy=0;entryX=0;entryY=0.5;entryDx=0;entryDy=0;" edge="1" parent="1" source="_b-5zfrXbttlsBcRX-14-66" target="_b-5zfrXbttlsBcRX-14-89">
          <mxGeometry relative="1" as="geometry" />
        </mxCell>
        <mxCell id="_b-5zfrXbttlsBcRX-14-66" value="" style="ellipse;whiteSpace=wrap;html=1;aspect=fixed;" vertex="1" parent="1">
          <mxGeometry x="585" y="330" width="110" height="110" as="geometry" />
        </mxCell>
        <mxCell id="_b-5zfrXbttlsBcRX-14-67" value="" style="endArrow=none;html=1;rounded=0;entryX=0.946;entryY=0.3;entryDx=0;entryDy=0;entryPerimeter=0;exitX=0.021;exitY=0.317;exitDx=0;exitDy=0;exitPerimeter=0;" edge="1" parent="1" source="_b-5zfrXbttlsBcRX-14-66" target="_b-5zfrXbttlsBcRX-14-66">
          <mxGeometry width="50" height="50" relative="1" as="geometry">
            <mxPoint x="736" y="480" as="sourcePoint" />
            <mxPoint x="870" y="515" as="targetPoint" />
          </mxGeometry>
        </mxCell>
        <mxCell id="_b-5zfrXbttlsBcRX-14-108" style="edgeStyle=orthogonalEdgeStyle;rounded=0;orthogonalLoop=1;jettySize=auto;html=1;exitX=0;exitY=0;exitDx=0;exitDy=0;entryX=0.5;entryY=0;entryDx=0;entryDy=0;" edge="1" parent="1" source="_b-5zfrXbttlsBcRX-14-72" target="_b-5zfrXbttlsBcRX-14-91">
          <mxGeometry relative="1" as="geometry" />
        </mxCell>
        <mxCell id="_b-5zfrXbttlsBcRX-14-72" value="1" style="text;html=1;align=center;verticalAlign=middle;whiteSpace=wrap;rounded=0;" vertex="1" parent="1">
          <mxGeometry x="610" y="335" width="60" height="30" as="geometry" />
        </mxCell>
        <mxCell id="_b-5zfrXbttlsBcRX-14-73" value="Kiểm tra tài khoản" style="text;html=1;align=center;verticalAlign=middle;whiteSpace=wrap;rounded=0;" vertex="1" parent="1">
          <mxGeometry x="610" y="375" width="60" height="30" as="geometry" />
        </mxCell>
        <mxCell id="_b-5zfrXbttlsBcRX-14-110" style="edgeStyle=orthogonalEdgeStyle;rounded=0;orthogonalLoop=1;jettySize=auto;html=1;exitX=0;exitY=0.5;exitDx=0;exitDy=0;entryX=0.5;entryY=1;entryDx=0;entryDy=0;" edge="1" parent="1" source="_b-5zfrXbttlsBcRX-14-74" target="_b-5zfrXbttlsBcRX-14-91">
          <mxGeometry relative="1" as="geometry" />
        </mxCell>
        <mxCell id="_b-5zfrXbttlsBcRX-14-74" value="" style="ellipse;whiteSpace=wrap;html=1;aspect=fixed;" vertex="1" parent="1">
          <mxGeometry x="450" y="500" width="110" height="110" as="geometry" />
        </mxCell>
        <mxCell id="_b-5zfrXbttlsBcRX-14-75" value="" style="endArrow=none;html=1;rounded=0;entryX=0.946;entryY=0.3;entryDx=0;entryDy=0;entryPerimeter=0;exitX=0.021;exitY=0.317;exitDx=0;exitDy=0;exitPerimeter=0;" edge="1" parent="1" source="_b-5zfrXbttlsBcRX-14-74" target="_b-5zfrXbttlsBcRX-14-74">
          <mxGeometry width="50" height="50" relative="1" as="geometry">
            <mxPoint x="601" y="650" as="sourcePoint" />
            <mxPoint x="735" y="685" as="targetPoint" />
          </mxGeometry>
        </mxCell>
        <mxCell id="_b-5zfrXbttlsBcRX-14-76" value="2" style="text;html=1;align=center;verticalAlign=middle;whiteSpace=wrap;rounded=0;" vertex="1" parent="1">
          <mxGeometry x="475" y="505" width="60" height="30" as="geometry" />
        </mxCell>
        <mxCell id="_b-5zfrXbttlsBcRX-14-77" value="Báo lỗi" style="text;html=1;align=center;verticalAlign=middle;whiteSpace=wrap;rounded=0;" vertex="1" parent="1">
          <mxGeometry x="475" y="545" width="60" height="30" as="geometry" />
        </mxCell>
        <mxCell id="_b-5zfrXbttlsBcRX-14-138" style="edgeStyle=orthogonalEdgeStyle;rounded=0;orthogonalLoop=1;jettySize=auto;html=1;exitX=1;exitY=0.5;exitDx=0;exitDy=0;entryX=0;entryY=0.5;entryDx=0;entryDy=0;" edge="1" parent="1" source="_b-5zfrXbttlsBcRX-14-78" target="_b-5zfrXbttlsBcRX-14-93">
          <mxGeometry relative="1" as="geometry" />
        </mxCell>
        <mxCell id="_b-5zfrXbttlsBcRX-14-78" value="" style="ellipse;whiteSpace=wrap;html=1;aspect=fixed;" vertex="1" parent="1">
          <mxGeometry x="1005" y="780" width="110" height="110" as="geometry" />
        </mxCell>
        <mxCell id="_b-5zfrXbttlsBcRX-14-79" value="" style="endArrow=none;html=1;rounded=0;entryX=0.946;entryY=0.3;entryDx=0;entryDy=0;entryPerimeter=0;exitX=0.021;exitY=0.317;exitDx=0;exitDy=0;exitPerimeter=0;" edge="1" parent="1" source="_b-5zfrXbttlsBcRX-14-78" target="_b-5zfrXbttlsBcRX-14-78">
          <mxGeometry width="50" height="50" relative="1" as="geometry">
            <mxPoint x="1156" y="930" as="sourcePoint" />
            <mxPoint x="1290" y="965" as="targetPoint" />
          </mxGeometry>
        </mxCell>
        <mxCell id="_b-5zfrXbttlsBcRX-14-80" value="4" style="text;html=1;align=center;verticalAlign=middle;whiteSpace=wrap;rounded=0;" vertex="1" parent="1">
          <mxGeometry x="1030" y="785" width="60" height="30" as="geometry" />
        </mxCell>
        <mxCell id="_b-5zfrXbttlsBcRX-14-81" value="Kiểm tra&amp;nbsp; sách" style="text;html=1;align=center;verticalAlign=middle;whiteSpace=wrap;rounded=0;" vertex="1" parent="1">
          <mxGeometry x="1030" y="825" width="65" height="30" as="geometry" />
        </mxCell>
        <mxCell id="_b-5zfrXbttlsBcRX-14-97" style="edgeStyle=orthogonalEdgeStyle;rounded=0;orthogonalLoop=1;jettySize=auto;html=1;exitX=0.5;exitY=1;exitDx=0;exitDy=0;entryX=0.5;entryY=0;entryDx=0;entryDy=0;" edge="1" parent="1" source="_b-5zfrXbttlsBcRX-14-86" target="_b-5zfrXbttlsBcRX-14-72">
          <mxGeometry relative="1" as="geometry" />
        </mxCell>
        <mxCell id="_b-5zfrXbttlsBcRX-14-86" value="" style="shape=partialRectangle;whiteSpace=wrap;html=1;left=0;right=0;fillColor=none;" vertex="1" parent="1">
          <mxGeometry x="580" y="170" width="120" height="60" as="geometry" />
        </mxCell>
        <mxCell id="_b-5zfrXbttlsBcRX-14-129" style="edgeStyle=orthogonalEdgeStyle;rounded=0;orthogonalLoop=1;jettySize=auto;html=1;exitX=0.5;exitY=1;exitDx=0;exitDy=0;entryX=0.5;entryY=0;entryDx=0;entryDy=0;" edge="1" parent="1" source="_b-5zfrXbttlsBcRX-14-89" target="_b-5zfrXbttlsBcRX-14-119">
          <mxGeometry relative="1" as="geometry" />
        </mxCell>
        <mxCell id="_b-5zfrXbttlsBcRX-14-89" value="" style="rounded=0;whiteSpace=wrap;html=1;" vertex="1" parent="1">
          <mxGeometry x="1000" y="355" width="120" height="60" as="geometry" />
        </mxCell>
        <mxCell id="_b-5zfrXbttlsBcRX-14-90" value="Bộ phận quản lý" style="text;html=1;align=center;verticalAlign=middle;whiteSpace=wrap;rounded=0;" vertex="1" parent="1">
          <mxGeometry x="1010" y="370" width="100" height="30" as="geometry" />
        </mxCell>
        <mxCell id="_b-5zfrXbttlsBcRX-14-91" value="" style="rounded=0;whiteSpace=wrap;html=1;" vertex="1" parent="1">
          <mxGeometry x="240" y="355" width="120" height="60" as="geometry" />
        </mxCell>
        <mxCell id="_b-5zfrXbttlsBcRX-14-98" style="edgeStyle=orthogonalEdgeStyle;rounded=0;orthogonalLoop=1;jettySize=auto;html=1;entryX=0;entryY=0.5;entryDx=0;entryDy=0;" edge="1" parent="1" target="_b-5zfrXbttlsBcRX-14-66">
          <mxGeometry relative="1" as="geometry">
            <mxPoint x="360" y="385" as="sourcePoint" />
          </mxGeometry>
        </mxCell>
        <mxCell id="_b-5zfrXbttlsBcRX-14-92" value="Sinh viên" style="text;html=1;align=center;verticalAlign=middle;whiteSpace=wrap;rounded=0;" vertex="1" parent="1">
          <mxGeometry x="250" y="370" width="100" height="30" as="geometry" />
        </mxCell>
        <mxCell id="_b-5zfrXbttlsBcRX-14-93" value="" style="rounded=0;whiteSpace=wrap;html=1;" vertex="1" parent="1">
          <mxGeometry x="1320" y="805" width="120" height="60" as="geometry" />
        </mxCell>
        <mxCell id="_b-5zfrXbttlsBcRX-14-94" value="Sách" style="text;html=1;align=center;verticalAlign=middle;whiteSpace=wrap;rounded=0;" vertex="1" parent="1">
          <mxGeometry x="1330" y="820" width="100" height="30" as="geometry" />
        </mxCell>
        <mxCell id="_b-5zfrXbttlsBcRX-14-95" value="Tài khoản" style="text;html=1;align=center;verticalAlign=middle;whiteSpace=wrap;rounded=0;" vertex="1" parent="1">
          <mxGeometry x="590" y="185" width="100" height="30" as="geometry" />
        </mxCell>
        <mxCell id="_b-5zfrXbttlsBcRX-14-99" value="Cung cấp thông tin" style="text;html=1;align=center;verticalAlign=middle;whiteSpace=wrap;rounded=0;" vertex="1" parent="1">
          <mxGeometry x="384" y="360" width="170" height="30" as="geometry" />
        </mxCell>
        <mxCell id="_b-5zfrXbttlsBcRX-14-101" value="Tài khoản không tồn tại" style="text;html=1;align=center;verticalAlign=middle;whiteSpace=wrap;rounded=0;" vertex="1" parent="1">
          <mxGeometry x="510" y="440" width="110" height="30" as="geometry" />
        </mxCell>
        <mxCell id="_b-5zfrXbttlsBcRX-14-116" style="edgeStyle=orthogonalEdgeStyle;rounded=0;orthogonalLoop=1;jettySize=auto;html=1;exitX=0;exitY=0.5;exitDx=0;exitDy=0;entryX=0.25;entryY=1;entryDx=0;entryDy=0;" edge="1" parent="1">
          <mxGeometry relative="1" as="geometry">
            <mxPoint x="719.940000000001" y="552.5" as="sourcePoint" />
            <mxPoint x="269.94" y="412.5" as="targetPoint" />
            <Array as="points">
              <mxPoint x="719.94" y="627.5" />
              <mxPoint x="269.94" y="627.5" />
            </Array>
          </mxGeometry>
        </mxCell>
        <mxCell id="_b-5zfrXbttlsBcRX-14-122" style="edgeStyle=orthogonalEdgeStyle;rounded=0;orthogonalLoop=1;jettySize=auto;html=1;exitX=1;exitY=0.5;exitDx=0;exitDy=0;entryX=0.5;entryY=0;entryDx=0;entryDy=0;" edge="1" parent="1" source="_b-5zfrXbttlsBcRX-14-102" target="_b-5zfrXbttlsBcRX-14-119">
          <mxGeometry relative="1" as="geometry" />
        </mxCell>
        <mxCell id="_b-5zfrXbttlsBcRX-14-139" style="edgeStyle=orthogonalEdgeStyle;rounded=0;orthogonalLoop=1;jettySize=auto;html=1;exitX=0.5;exitY=1;exitDx=0;exitDy=0;entryX=0.5;entryY=0;entryDx=0;entryDy=0;" edge="1" parent="1" source="_b-5zfrXbttlsBcRX-14-102" target="_b-5zfrXbttlsBcRX-14-132">
          <mxGeometry relative="1" as="geometry" />
        </mxCell>
        <mxCell id="_b-5zfrXbttlsBcRX-14-141" style="edgeStyle=orthogonalEdgeStyle;rounded=0;orthogonalLoop=1;jettySize=auto;html=1;exitX=0.5;exitY=1;exitDx=0;exitDy=0;" edge="1" parent="1" source="_b-5zfrXbttlsBcRX-14-102" target="_b-5zfrXbttlsBcRX-14-136">
          <mxGeometry relative="1" as="geometry" />
        </mxCell>
        <mxCell id="_b-5zfrXbttlsBcRX-14-102" value="" style="ellipse;whiteSpace=wrap;html=1;aspect=fixed;" vertex="1" parent="1">
          <mxGeometry x="720" y="500" width="110" height="110" as="geometry" />
        </mxCell>
        <mxCell id="_b-5zfrXbttlsBcRX-14-103" value="" style="endArrow=none;html=1;rounded=0;entryX=0.946;entryY=0.3;entryDx=0;entryDy=0;entryPerimeter=0;exitX=0.021;exitY=0.317;exitDx=0;exitDy=0;exitPerimeter=0;" edge="1" parent="1" source="_b-5zfrXbttlsBcRX-14-102" target="_b-5zfrXbttlsBcRX-14-102">
          <mxGeometry width="50" height="50" relative="1" as="geometry">
            <mxPoint x="871" y="650" as="sourcePoint" />
            <mxPoint x="1005" y="685" as="targetPoint" />
          </mxGeometry>
        </mxCell>
        <mxCell id="_b-5zfrXbttlsBcRX-14-104" value="3" style="text;html=1;align=center;verticalAlign=middle;whiteSpace=wrap;rounded=0;" vertex="1" parent="1">
          <mxGeometry x="745" y="505" width="60" height="30" as="geometry" />
        </mxCell>
        <mxCell id="_b-5zfrXbttlsBcRX-14-105" value="Xử lý&amp;nbsp;" style="text;html=1;align=center;verticalAlign=middle;whiteSpace=wrap;rounded=0;" vertex="1" parent="1">
          <mxGeometry x="745" y="545" width="60" height="30" as="geometry" />
        </mxCell>
        <mxCell id="_b-5zfrXbttlsBcRX-14-107" value="Thông tin tài khoản" style="text;html=1;align=center;verticalAlign=middle;whiteSpace=wrap;rounded=0;" vertex="1" parent="1">
          <mxGeometry x="650" y="280" width="60" height="30" as="geometry" />
        </mxCell>
        <mxCell id="_b-5zfrXbttlsBcRX-14-109" value="Tài khoàn tồn tại" style="text;html=1;align=center;verticalAlign=middle;whiteSpace=wrap;rounded=0;" vertex="1" parent="1">
          <mxGeometry x="384" y="285" width="130" height="30" as="geometry" />
        </mxCell>
        <mxCell id="_b-5zfrXbttlsBcRX-14-111" value="Thông tin tài khoản không tồn tại" style="text;html=1;align=center;verticalAlign=middle;whiteSpace=wrap;rounded=0;" vertex="1" parent="1">
          <mxGeometry x="300" y="515" width="130" height="30" as="geometry" />
        </mxCell>
        <mxCell id="_b-5zfrXbttlsBcRX-14-114" value="Tài khoản tồn tại/ không tồn tại" style="text;html=1;align=center;verticalAlign=middle;whiteSpace=wrap;rounded=0;" vertex="1" parent="1">
          <mxGeometry x="690" y="355" width="310" height="30" as="geometry" />
        </mxCell>
        <mxCell id="_b-5zfrXbttlsBcRX-14-115" value="Tài khoản tồn tại" style="text;html=1;align=center;verticalAlign=middle;whiteSpace=wrap;rounded=0;" vertex="1" parent="1">
          <mxGeometry x="680" y="440" width="110" height="30" as="geometry" />
        </mxCell>
        <mxCell id="_b-5zfrXbttlsBcRX-14-117" value="Đăng nhập thành công" style="text;html=1;align=center;verticalAlign=middle;whiteSpace=wrap;rounded=0;" vertex="1" parent="1">
          <mxGeometry x="265" y="600" width="200" height="30" as="geometry" />
        </mxCell>
        <mxCell id="_b-5zfrXbttlsBcRX-14-124" value="" style="edgeStyle=orthogonalEdgeStyle;rounded=0;orthogonalLoop=1;jettySize=auto;html=1;" edge="1" parent="1" source="_b-5zfrXbttlsBcRX-14-119" target="_b-5zfrXbttlsBcRX-14-80">
          <mxGeometry relative="1" as="geometry" />
        </mxCell>
        <mxCell id="_b-5zfrXbttlsBcRX-14-119" value="" style="shape=partialRectangle;whiteSpace=wrap;html=1;left=0;right=0;fillColor=none;" vertex="1" parent="1">
          <mxGeometry x="1000" y="575" width="120" height="60" as="geometry" />
        </mxCell>
        <mxCell id="_b-5zfrXbttlsBcRX-14-120" value="GV phân loại" style="text;html=1;align=center;verticalAlign=middle;whiteSpace=wrap;rounded=0;" vertex="1" parent="1">
          <mxGeometry x="1010" y="590" width="100" height="30" as="geometry" />
        </mxCell>
        <mxCell id="_b-5zfrXbttlsBcRX-14-126" value="Thông tin sách" style="text;html=1;align=center;verticalAlign=middle;whiteSpace=wrap;rounded=0;" vertex="1" parent="1">
          <mxGeometry x="1070" y="689" width="90" height="30" as="geometry" />
        </mxCell>
        <mxCell id="_b-5zfrXbttlsBcRX-14-127" value="Hư hỏng/ mất/ quá hạn" style="text;html=1;align=center;verticalAlign=middle;whiteSpace=wrap;rounded=0;" vertex="1" parent="1">
          <mxGeometry x="1160" y="805" width="130" height="30" as="geometry" />
        </mxCell>
        <mxCell id="_b-5zfrXbttlsBcRX-14-128" value="Thông tin sách" style="text;html=1;align=center;verticalAlign=middle;whiteSpace=wrap;rounded=0;" vertex="1" parent="1">
          <mxGeometry x="1070" y="470" width="90" height="30" as="geometry" />
        </mxCell>
        <mxCell id="_b-5zfrXbttlsBcRX-14-142" style="edgeStyle=orthogonalEdgeStyle;rounded=0;orthogonalLoop=1;jettySize=auto;html=1;exitX=0.5;exitY=1;exitDx=0;exitDy=0;entryX=0;entryY=0.5;entryDx=0;entryDy=0;" edge="1" parent="1" source="_b-5zfrXbttlsBcRX-14-132" target="_b-5zfrXbttlsBcRX-14-91">
          <mxGeometry relative="1" as="geometry" />
        </mxCell>
        <mxCell id="_b-5zfrXbttlsBcRX-14-132" value="" style="shape=partialRectangle;whiteSpace=wrap;html=1;left=0;right=0;fillColor=none;" vertex="1" parent="1">
          <mxGeometry x="610" y="719" width="120" height="60" as="geometry" />
        </mxCell>
        <mxCell id="_b-5zfrXbttlsBcRX-14-133" value="Phiếu mượn" style="text;html=1;align=center;verticalAlign=middle;whiteSpace=wrap;rounded=0;" vertex="1" parent="1">
          <mxGeometry x="620" y="734" width="100" height="30" as="geometry" />
        </mxCell>
        <mxCell id="_b-5zfrXbttlsBcRX-14-136" value="" style="shape=partialRectangle;whiteSpace=wrap;html=1;left=0;right=0;fillColor=none;" vertex="1" parent="1">
          <mxGeometry x="830" y="719" width="120" height="60" as="geometry" />
        </mxCell>
        <mxCell id="_b-5zfrXbttlsBcRX-14-137" value="Phiếu trả" style="text;html=1;align=center;verticalAlign=middle;whiteSpace=wrap;rounded=0;" vertex="1" parent="1">
          <mxGeometry x="840" y="734" width="100" height="30" as="geometry" />
        </mxCell>
        <mxCell id="_b-5zfrXbttlsBcRX-14-145" value="Phiếu mượn" style="text;html=1;align=center;verticalAlign=middle;whiteSpace=wrap;rounded=0;" vertex="1" parent="1">
          <mxGeometry x="315" y="770" width="100" height="30" as="geometry" />
        </mxCell>
        <mxCell id="_b-5zfrXbttlsBcRX-14-148" value="" style="endArrow=none;html=1;rounded=0;entryX=0.5;entryY=1;entryDx=0;entryDy=0;" edge="1" parent="1" target="_b-5zfrXbttlsBcRX-14-136">
          <mxGeometry width="50" height="50" relative="1" as="geometry">
            <mxPoint x="890" y="880" as="sourcePoint" />
            <mxPoint x="560" y="750" as="targetPoint" />
          </mxGeometry>
        </mxCell>
        <mxCell id="_b-5zfrXbttlsBcRX-14-149" value="" style="endArrow=none;html=1;rounded=0;" edge="1" parent="1">
          <mxGeometry width="50" height="50" relative="1" as="geometry">
            <mxPoint x="260" y="880" as="sourcePoint" />
            <mxPoint x="890" y="880" as="targetPoint" />
          </mxGeometry>
        </mxCell>
        <mxCell id="_b-5zfrXbttlsBcRX-14-150" value="" style="endArrow=classic;html=1;rounded=0;entryX=0.177;entryY=0.977;entryDx=0;entryDy=0;entryPerimeter=0;" edge="1" parent="1" target="_b-5zfrXbttlsBcRX-14-91">
          <mxGeometry width="50" height="50" relative="1" as="geometry">
            <mxPoint x="260" y="880" as="sourcePoint" />
            <mxPoint x="560" y="750" as="targetPoint" />
          </mxGeometry>
        </mxCell>
        <mxCell id="_b-5zfrXbttlsBcRX-14-151" value="Phiếu trả" style="text;html=1;align=center;verticalAlign=middle;whiteSpace=wrap;rounded=0;" vertex="1" parent="1">
          <mxGeometry x="550" y="850" width="100" height="30" as="geometry" />
        </mxCell>
      </root>
    </mxGraphModel>
  </diagram>
</mxfile>
